<svg xmlns="http://www.w3.org/2000/svg" width="145" height="50" fill="none"><path fill="#fff" d="M22.5 47a22.5 22.5 0 100-45 22.5 22.5 0 000 45z"/><path fill="#F8CA41" d="M5.7 23.5c1.07 0 1.93-.84 2.12-1.88a14.72 14.72 0 0111.8-11.8c1.04-.19 1.88-1.05 1.88-2.12 0-1.14-.96-2.06-2.1-1.88-8 1.3-14.28 7.58-15.58 15.59-.18 1.13.74 2.09 1.88 2.09z"/><path fill="#5C9FDA" d="M23.5 7.7c0 1.07.84 1.93 1.88 2.12a14.72 14.72 0 0111.8 11.8c.19 1.04 1.05 1.88 2.12 1.88 1.14 0 2.06-.96 1.88-2.1A18.95 18.95 0 0025.59 5.84c-1.13-.19-2.09.73-2.09 1.88z"/><path fill="#5BBA6B" d="M21.5 41.3c0-1.07-.84-1.93-1.88-2.12a14.72 14.72 0 01-11.8-11.8c-.19-1.04-1.05-1.88-2.12-1.88-1.14 0-2.06.96-1.88 2.1 1.32 8 7.65 14.27 15.59 15.57 1.13.19 2.09-.73 2.09-1.88z"/><path fill="#E75044" d="M39.3 25.5c-1.07 0-1.93.84-2.12 1.88a14.72 14.72 0 01-11.8 11.8c-1.04.19-1.88 1.05-1.88 2.12 0 1.14.96 2.06 2.1 1.88 8-1.32 14.27-7.65 15.57-15.59.19-1.13-.73-2.09-1.88-2.09z"/><path fill="#5D606E" d="M31.5 19.6c-.3-.4-.9-.6-1.4-.2L22 25l-6.1-3.6c-.5-.3-1.1-.1-1.4.4-.3.5-.1 1.1.4 1.4l6.6 3.9h.1c.1 0 .2.1.3.1h.4c.2 0 .3-.1.5-.2l8.6-6c.3-.3.4-.9.1-1.4z"/><path fill="#44484A" d="M89.7 15c-.5 0-1 .2-1.3.5-.4.4-.6.8-.6 1.4 0 .6.2 1 .5 1.3.4.4.8.6 1.4.6.5 0 1-.2 1.3-.5.4-.4.5-.8.5-1.3s-.2-1-.5-1.3c-.3-.3-.8-.7-1.3-.7zM91 21h-4.6c-.2 0-.3.1-.3.3v1.8c0 .2.1.3.3.3h2.3v10.3c0 .2.1.2.3.2h2c.2 0 .3-.1.3-.3V21.4c0-.3-.1-.4-.3-.4zM131.3 15.9h-2c-.1 0-.2.1-.3.3l-3.3 9.1c-.1.2-.1.4-.2.6-.1.2-.1.5-.2 1 0-.2-.1-.5-.2-.9-.1-.3-.2-.6-.2-.7l-3.2-9.1c-.1-.2-.2-.3-.3-.3h-2.2c-.2 0-.3.1-.3.3l-1.1 17.4c0 .2.1.3.3.3h2.3c.2 0 .3-.1.3-.3l.4-12.5 3 8.5c.1.2.2.3.4.3h1.4c.2 0 .3-.1.4-.3l3.1-8.8v-.4.2l.4 13c0 .2.1.3.3.3h2.2c.2 0 .3-.1.3-.3l-1-17.4c0-.2-.1-.3-.3-.3zM144.1 18.4c.2 0 .3-.1.4-.2l.5-2c0-.2 0-.3-.3-.3h-8.9c-.2 0-.3.1-.3.3v17.4c0 .2.1.3.3.3h8.8c.2 0 .3-.1.3-.3v-1.4c0-.2-.1-.3-.3-.3h-6.3v-6.2h5.2c.2 0 .3-.1.3-.3v-1.6c0-.2-.1-.3-.3-.3h-5.2v-5.1h5.8zM115.2 31.9h-2.7v-14h2.6c.2 0 .3-.2.3-.4v-1.3c0-.2-.1-.3-.3-.3h-8c-.2 0-.4.1-.4.3v1.4c0 .2.2.3.4.3h2.6v14H107c-.2 0-.3.1-.3.3v1.3c0 .2.1.3.3.3h8.2c.2 0 .3-.1.3-.3v-1.3c.1-.2-.1-.3-.3-.3zM105.4 15.9H94.1c-.3 0-.4.1-.4.3V18c0 .2.1.3.3.3h4v15.2c0 .2.1.3.3.3h2c.2 0 .3-.1.3-.3V18.4h4.1c.2 0 .4-.1.4-.3l.6-1.8V16s-.1-.1-.3-.1zM70.8 20.7c-1.6 0-3.1.5-4.1 1.6a8.35 8.35 0 00-1.8 5.4c0 2.3.8 4.3 1.9 5.3.9.8 2.3 1.2 3.8 1.2.6 0 1.1 0 1.6-.1s1.1-.3 1.5-.5c.5-.2.8-.3.9-.4.1-.1.2-.1.2-.2v-.2l-.6-1.8s-.1 0-.2-.1l-.3.1c-.6.3-1.1.6-1.4.7-.5.2-1 .2-1.5.2-1.3 0-2.1-.6-2.6-1.7-.3-.7-.5-1.3-.5-2.7 0-1.5.2-2.2.8-3 .6-.8 1.4-1.3 2.5-1.3.5 0 1.1.1 1.5.3.4.2.8.4 1.3.8.1.1.2.2.3.2l.1-.1.7-1.8c0-.1.1-.2.3-.5-.1-.1-.2-.2-.5-.4-1.1-.7-2.6-1-3.9-1zM84.8 31.3l-.4.1c-.2.2-.6.3-1 .4-.4.1-1 .2-1.4.2-.6 0-.7-.1-.9-.3-.3-.2-.4-.6-.4-1.5v-7.1H84c.1-.1.1-.1.2-.1 0 0 .1-.1.1-.2l.4-1.3c0-.3 0-.4-.3-.4h-3.7v-3.9c0-.3-.1-.4-.3-.3l-2.2.4c-.2 0-.3.1-.3.3v3.5H76c-.2 0-.3.1-.3.3v1.3c0 .2.1.3.3.3h1.9v7.2c0 .7 0 1.7.1 2.1.1.4.2.8.6 1.1.7.6.8.6 1.3.7.4.2 1.2.3 1.7.3.3 0 .8 0 1.3-.1.4-.1.9-.2 1.2-.3.6-.2 1-.3 1.1-.5.1-.1.1-.2.1-.4l-.3-1.7c0-.1-.1-.1-.2-.1zM62.6 32.1c-.2-.5-.3-1.1-.3-1.8v-5.8c0-2.3-1.7-3.7-4.5-3.7-1.3 0-2.9.2-4.1.7-.1.1-.3.1-.4.2-.1 0-.2.1-.2.2v.2l.4 1.6.1.1c.1.1.1.1.2.1l.4-.1c.9-.5 2.1-.7 3.1-.7s1.6.2 1.9.7c.3.3.4.6.4 1.3v.8s-1 0-1.6.1c-.6.1-.8.2-1.3.3-1.4.3-2.8.9-3.5 1.7-.5.6-.8 1.4-.8 2.4s.2 2.3.8 2.9c.7.7 2.1 1.1 3.3 1.1.8 0 1.6-.2 2.3-.6.4-.2.5-.4 1-.9l.2-.2c.1.4.6 1.1.7 1.3.2.3.3.5.4.5.1 0 .3 0 .4-.1l1.5-1.1c.1 0 .1-.1.1-.3l-.1-.2-.4-.7zm-3-1.4l-.2.2c-.4.3-.7.6-1.1.8-.6.4-.9.6-1.4.6-.5 0-.6 0-1-.3-.3-.3-.6-.9-.6-1.6 0-.7.2-1.3.8-1.8.7-.7 1.7-1 3.5-1v3.1z"/></svg>