<svg width="754" height="439" viewBox="0 0 754 439" fill="none" xmlns="http://www.w3.org/2000/svg">
<path d="M0 0H754V439H0V0Z" fill="#FD6559"/>
<g opacity="0.5">
<path d="M387.5 381.5C331 381.5 176.829 452.223 141.998 266.224C132.36 214.801 158.224 155.179 205.804 129.749C230.752 116.428 260.166 120.031 285.908 109.663C308.783 100.447 322.752 79.0983 346.542 71.2182C425.633 45.0041 529.371 98 568.86 202.35C585 245 585 376 484.5 381.5C444.679 383.679 470 409.5 387.5 381.5Z" fill="#A9DBFF"/>
</g>
<ellipse cx="353" cy="385" rx="218" ry="15" fill="#384C72"/>
<path d="M349.952 232.079H403.695V228.888H349.952V232.079Z" fill="#E2D2CA"/>
<path d="M396.496 240.382H391.785V385.467H396.496V240.382Z" fill="#384C72"/>
<path d="M321.009 232.541H358.366V227.987H321.009V232.541Z" fill="#CCBDB7"/>
<path d="M332.614 232.079H346.762V189.113H332.614V232.079Z" fill="#C9D2DD"/>
<path d="M216 240.378L422.974 240.378V232.13L216 232.13V240.378Z" fill="#384C72"/>
<path d="M462.695 182.201C462.695 182.201 464.956 213.946 458.756 217.746C454.868 220.127 439.374 228.154 439.837 229.661C440.299 231.168 448.584 243.069 448.584 243.069C448.584 243.069 478.341 223.47 479.303 217.298C480.227 211.287 477.837 170.813 473.755 168.95C470.694 167.563 469.076 168.71 465.215 171.576C459.792 175.585 462.695 182.201 462.695 182.201Z" fill="#10B12A"/>
<path d="M408.462 191.268L405.84 190.297C405.84 190.297 409.109 182.617 410.538 182.807C411.783 182.992 413.018 183.243 414.237 183.56L408.462 191.268Z" fill="#EAD8CF"/>
<path d="M407.861 192.59C408.198 192.34 413.437 182.289 413.437 182.289L424.635 183.81L418.583 195.715L407.861 192.59Z" fill="#DA9B5B"/>
<path d="M426.082 365.656C426.082 365.656 427.007 372.078 427.127 373.053C427.247 374.029 437.419 372.484 437.419 372.484L438.242 364.837C438.242 364.837 427.358 364.749 426.082 365.656Z" fill="#424773"/>
<path d="M427.016 372.23C427.016 372.23 423.779 376.1 420.672 377.778C417.565 379.457 412.65 380.132 410.806 381.879C409.474 383.137 405.956 388.565 418.911 388.454C431.866 388.343 438.112 389.221 439.504 387.141C440.895 385.06 437.492 371.782 437.492 371.782C437.492 371.782 434.422 372.896 427.016 372.23Z" fill="#091521"/>
<path d="M360.867 365.716C360.867 365.716 361.792 372.143 361.912 373.114C362.032 374.085 372.204 372.545 372.204 372.545L373.027 364.898C373.027 364.898 362.143 364.81 360.867 365.716Z" fill="#424773"/>
<path d="M361.801 372.291C361.801 372.291 358.565 376.161 355.458 377.84C352.351 379.518 340.862 380.91 339.017 382.657C337.685 383.919 335.471 388.991 353.696 388.52C366.642 388.182 372.898 389.283 374.285 387.202C375.672 385.122 372.278 371.848 372.278 371.848C372.278 371.848 369.388 373.036 361.801 372.291Z" fill="#091521"/>
<path d="M458.913 254.701C458.913 254.701 421.926 260.961 413.553 262.274C405.179 263.587 359.874 274.864 354.206 278.299C349.693 281.036 356.573 346.726 358.177 371.79H376.028L377.323 296.608C398.744 297.144 414.029 291.601 429.628 293.968C445.228 296.335 458.229 299.706 468.142 286.408C468.142 286.399 468.507 257.604 458.913 254.701Z" fill="#603AD1"/>
<path d="M422.438 371.856L439.836 370.779L441.528 296.609C450.752 296.84 453.91 296.258 461.372 295.351L475.418 262.705C463.111 265.165 423.672 275.114 418.416 278.3C413.903 281.037 420.834 346.792 422.438 371.856Z" fill="#603AD1"/>
<path d="M441.889 115.988C441.889 115.988 428.324 112.238 423.146 122.771C417.968 133.303 420.316 153.285 427.154 155.135C433.993 156.984 443.799 154.848 446.661 148.297C449.523 141.745 451.747 132.429 451.086 126.395C450.424 120.362 445.482 117.43 441.889 115.988Z" fill="#F7C4A5"/>
<path d="M430.692 153.04C430.692 153.04 430.84 161.053 429.956 162.75C429.073 164.446 448.848 164.03 448.848 164.03C448.848 164.03 445.732 154.409 447.498 146.216C449.25 138.116 430.692 153.04 430.692 153.04Z" fill="#F7C4A5"/>
<path d="M448.566 143.193C448.566 143.193 447.507 145.343 442.389 144.996C437.27 144.649 430.52 138.477 428.347 137.922C426.174 137.367 426.035 136.137 426.035 136.137L424.884 138.181L422.66 138.519C422.66 138.519 424.172 132.332 420.876 130.15C417.579 127.968 422.36 110.422 439.05 114.657C439.05 114.657 451.788 116.969 451.959 124.098C452.13 131.227 451.035 139.429 448.566 143.193Z" fill="#384C72"/>
<path d="M428.917 162.551C428.917 162.551 428.972 159.291 430.451 158.977C431.931 158.663 445.996 156.73 447.808 157.442L448.589 161.751C448.589 161.751 445.089 163.906 428.917 162.551Z" fill="#E2D2CA"/>
<path d="M424.847 134.676C425.226 132.004 428.269 128.934 430.007 133.095C431.745 137.256 428.833 143.327 426.882 142.998C424.93 142.67 424.32 138.306 424.847 134.676Z" fill="#F7C4A5"/>
<path d="M370.008 201.097H370.036C369.93 201.138 369.916 201.143 370.008 201.097Z" fill="#323657"/>
<path d="M445.838 117.898C445.838 117.898 462.376 117.122 448.723 142.939L445.838 117.898Z" fill="#384C72"/>
<path d="M482.691 380.655L481.457 384.113L429.471 368.005L431.963 360.996L482.691 380.655Z" fill="#9CA7B4"/>
<path d="M427.686 365.537H433.595V309.015H427.686V365.537Z" fill="#9CA7B4"/>
<path d="M413.215 309.342H448.066V306.013H413.215V309.342Z" fill="#091521"/>
<path d="M378.137 380.653L379.367 384.112L431.357 368.004L429.069 360.555L378.137 380.653Z" fill="#9CA7B4"/>
<path d="M414.768 383.742V387.769L431.357 368.004L429.068 360.555L414.768 383.742Z" fill="#9CA7B4"/>
<path d="M373.277 385.467C373.277 386.428 373.562 387.368 374.096 388.167C374.63 388.966 375.389 389.589 376.277 389.957C377.164 390.324 378.142 390.421 379.084 390.233C380.027 390.046 380.893 389.583 381.572 388.903C382.252 388.224 382.715 387.358 382.902 386.415C383.09 385.473 382.993 384.496 382.626 383.608C382.258 382.72 381.635 381.961 380.836 381.427C380.037 380.893 379.097 380.608 378.136 380.608C376.848 380.609 375.612 381.121 374.701 382.032C373.79 382.944 373.278 384.179 373.277 385.467V385.467Z" fill="#C9D2DD"/>
<path d="M414.353 385.467C414.353 386.427 414.637 387.366 415.17 388.164C415.703 388.963 416.46 389.586 417.347 389.954C418.233 390.323 419.209 390.42 420.151 390.235C421.093 390.049 421.959 389.589 422.64 388.911C423.32 388.234 423.785 387.37 423.975 386.429C424.165 385.488 424.072 384.512 423.708 383.624C423.344 382.735 422.724 381.975 421.928 381.438C421.132 380.901 420.195 380.613 419.235 380.608C418.595 380.606 417.961 380.729 417.369 380.972C416.777 381.215 416.239 381.573 415.785 382.024C415.332 382.476 414.972 383.012 414.726 383.603C414.48 384.194 414.353 384.827 414.353 385.467Z" fill="#C9D2DD"/>
<path d="M477.833 385.467C477.833 386.428 478.118 387.368 478.651 388.167C479.185 388.966 479.944 389.589 480.832 389.957C481.72 390.324 482.697 390.421 483.64 390.233C484.582 390.046 485.448 389.583 486.128 388.903C486.807 388.224 487.27 387.358 487.458 386.415C487.645 385.473 487.549 384.496 487.181 383.608C486.813 382.72 486.191 381.961 485.391 381.427C484.592 380.893 483.653 380.608 482.692 380.608C481.403 380.608 480.167 381.12 479.256 382.031C478.344 382.942 477.833 384.178 477.833 385.467V385.467Z" fill="#C9D2DD"/>
<path d="M395.359 306.013H465.469C468.909 306.013 471.697 303.224 471.697 299.785V299.623C471.697 296.184 468.909 293.395 465.469 293.395H395.359C391.919 293.395 389.131 296.184 389.131 299.623V299.785C389.131 303.224 391.919 306.013 395.359 306.013Z" fill="#384C72"/>
<path d="M242.479 385.467H247.19L247.19 240.383H242.479L242.479 385.467Z" fill="#384C72"/>
<path d="M284.83 209.812H394.549C397.981 209.812 400.763 207.03 400.763 203.598V129.854C400.763 126.422 397.981 123.64 394.549 123.64L284.83 123.64C281.398 123.64 278.616 126.422 278.616 129.854V203.598C278.616 207.03 281.398 209.812 284.83 209.812Z" fill="#C9D2DD"/>
<path d="M283.397 196.306H395.979V128.3H283.397V196.306Z" fill="#F5F7FF"/>
<path d="M314.401 232.24V230.71C314.401 230.71 316.556 221.172 331.804 221.172C347.052 221.172 346.743 232.24 346.743 232.24H314.401Z" fill="#C9D2DD"/>
<path d="M346.928 222.595C346.928 222.595 343.618 222.341 342.402 221.606C341.186 220.871 333.927 215.993 332.23 216.774C330.533 217.556 319.178 221.033 319.571 222.692C319.964 224.352 321.014 224.19 321.813 223.899C322.613 223.608 330.857 221.874 331.587 222.165C331.587 222.165 323.487 225.12 323.455 227.251C323.422 229.383 325.152 229.933 325.919 230.747C326.687 231.56 327.607 233.585 329.696 233.738C331.786 233.89 341.962 230.354 344.057 230.192C346.151 230.03 350.03 230.321 350.294 229.979C350.558 229.637 346.928 222.595 346.928 222.595Z" fill="#F7C4A5"/>
<path d="M407.236 167.074C417.801 165.225 428.916 162.552 428.916 162.552L448.589 161.752C448.589 161.752 466.62 165.729 473.75 168.937C474.425 169.242 474.429 185.045 476.279 189.188L470.384 201.625C470.384 201.625 466.981 226.259 466.273 237.226C465.95 242.256 467.198 285.837 467.198 285.837C467.198 285.837 465.432 286.706 452.005 288.186C438.579 289.665 405.04 287.654 404.846 286.068C404.652 284.482 411.319 227.022 411.638 224.049C412.1 219.481 410.32 198.38 410.32 198.38C407.791 201.778 401.341 217.118 394.6 224.419C390.647 228.714 371.072 231.354 367.382 231.47C359.346 231.738 344.695 233.319 344.265 232.556C343.923 232.094 342.989 219.55 343.909 219.245C344.713 218.977 371.922 217.396 378.894 213.697C381.442 212.342 389.066 195.716 389.066 195.716C389.066 195.716 401.411 169.696 407.236 167.074Z" fill="#42C657"/>
<path d="M479.025 284.56L446.004 284.56C444.434 284.56 442.88 284.251 441.429 283.65C439.978 283.049 438.66 282.168 437.55 281.058C436.44 279.948 435.559 278.63 434.958 277.179C434.357 275.729 434.048 274.174 434.048 272.604V217.658C434.051 214.489 435.311 211.45 437.553 209.21C439.795 206.97 442.835 205.711 446.004 205.711H479.025C480.596 205.709 482.152 206.016 483.604 206.615C485.056 207.214 486.376 208.094 487.488 209.203C488.6 210.313 489.483 211.631 490.085 213.081C490.688 214.532 490.999 216.087 491 217.658V272.604C490.999 274.175 490.689 275.731 490.087 277.183C489.485 278.634 488.602 279.953 487.49 281.063C486.378 282.174 485.058 283.054 483.606 283.654C482.153 284.254 480.597 284.562 479.025 284.56Z" fill="#384C72"/>
<path d="M444.136 302.873C452.528 302.873 459.338 300.053 464.373 294.49C475.756 281.924 473.712 259.814 473.62 258.89C473.537 258.053 473.126 257.284 472.476 256.752C471.826 256.219 470.991 255.966 470.155 256.049C469.318 256.131 468.549 256.543 468.016 257.193C467.484 257.843 467.231 258.678 467.313 259.514C467.313 259.768 469.163 279.788 459.666 290.242C455.829 294.472 450.748 296.525 444.136 296.525C443.71 296.509 443.284 296.578 442.886 296.73C442.487 296.882 442.123 297.113 441.815 297.409C441.508 297.705 441.263 298.06 441.096 298.453C440.929 298.845 440.843 299.267 440.843 299.694C440.843 300.121 440.929 300.543 441.096 300.936C441.263 301.328 441.508 301.683 441.815 301.979C442.123 302.275 442.487 302.506 442.886 302.658C443.284 302.81 443.71 302.88 444.136 302.864V302.873Z" fill="#384C72"/>
<path d="M355.907 137.307H387.101C387.594 137.307 387.994 136.907 387.994 136.414V134.607C387.994 134.114 387.594 133.714 387.101 133.714H355.907C355.414 133.714 355.014 134.114 355.014 134.607V136.414C355.014 136.907 355.414 137.307 355.907 137.307Z" fill="#A9DBFF"/>
<path d="M387.12 145.015H355.925C355.689 145.015 355.462 144.921 355.294 144.753C355.127 144.586 355.033 144.359 355.033 144.122V142.31C355.033 142.074 355.127 141.849 355.293 141.682C355.459 141.516 355.685 141.422 355.921 141.422H387.12C387.237 141.422 387.353 141.445 387.461 141.49C387.57 141.535 387.668 141.601 387.751 141.684C387.834 141.766 387.899 141.865 387.944 141.973C387.989 142.081 388.012 142.197 388.012 142.315V144.127C388.011 144.363 387.916 144.589 387.749 144.755C387.582 144.921 387.356 145.015 387.12 145.015V145.015Z" fill="#A9DBFF"/>
<path d="M358.01 190.887H384.998C386.652 190.887 387.994 189.546 387.994 187.891V153.252C387.994 151.598 386.652 150.256 384.998 150.256H358.01C356.356 150.256 355.014 151.598 355.014 153.252V187.891C355.014 189.546 356.356 190.887 358.01 190.887Z" fill="#FFDA59"/>
<path d="M294.369 190.887H343.618C346.235 190.887 348.357 188.765 348.357 186.148V138.452C348.357 135.835 346.235 133.713 343.618 133.713H294.369C291.751 133.713 289.63 135.835 289.63 138.452V186.148C289.63 188.765 291.751 190.887 294.369 190.887Z" fill="#33A9FF"/>
<path d="M241.402 186.266C244.345 186.264 247.204 185.287 249.532 183.489C251.861 181.69 253.528 179.17 254.274 176.324C255.019 173.477 254.801 170.464 253.653 167.755C252.505 165.045 250.491 162.793 247.928 161.349C245.364 159.904 242.394 159.35 239.482 159.773C236.57 160.195 233.879 161.57 231.831 163.683C229.783 165.796 228.493 168.528 228.162 171.451C227.831 174.375 228.477 177.326 230.001 179.844C231.188 181.805 232.861 183.426 234.859 184.551C236.856 185.676 239.11 186.267 241.402 186.266Z" fill="#10B12A"/>
<path d="M254.935 185.068C257.408 185.068 259.78 184.086 261.529 182.337C263.278 180.588 264.26 178.216 264.26 175.743C264.26 175.447 264.26 175.151 264.219 174.859C264.047 173.061 263.358 171.351 262.233 169.937C261.108 168.523 259.597 167.466 257.882 166.895C256.168 166.324 254.325 166.263 252.577 166.72C250.829 167.177 249.251 168.132 248.036 169.468C246.82 170.805 246.019 172.466 245.73 174.249C245.44 176.033 245.675 177.862 246.406 179.514C247.137 181.167 248.332 182.571 249.846 183.557C251.36 184.543 253.128 185.068 254.935 185.068V185.068Z" fill="#10B12A"/>
<path d="M241.185 173.638C241.185 173.638 240.441 179.824 240.196 188.243C239.951 196.663 246.631 196.658 246.631 196.658V227.492H251.255C251.255 227.492 251.144 196.052 253.456 193.514C255.767 190.976 255.767 178.987 255.767 178.987L254.45 178.22C254.45 178.22 256.429 192.414 247.408 194.503C238.388 196.593 241.795 174.257 241.795 174.257L241.185 173.638Z" fill="#925E2E"/>
<path d="M238.101 175.082C245.753 173.653 250.788 170.347 253.515 167.374C252.751 165.735 251.662 164.268 250.313 163.064C248.964 161.859 247.384 160.941 245.669 160.367C243.954 159.792 242.14 159.573 240.337 159.721C238.535 159.87 236.781 160.384 235.184 161.232C233.586 162.081 232.178 163.245 231.045 164.654C229.912 166.064 229.077 167.69 228.593 169.432C228.108 171.174 227.982 172.997 228.224 174.79C228.466 176.582 229.071 178.306 230 179.858C230.366 178.032 232.354 176.154 238.101 175.082Z" fill="#42C657"/>
<path d="M257.658 178.299C260.751 177.412 262.845 176.186 264.219 174.859C264.069 173.289 263.524 171.782 262.634 170.48C261.743 169.177 260.537 168.122 259.128 167.413C257.719 166.704 256.153 166.363 254.577 166.424C253 166.484 251.465 166.944 250.115 167.759C248.764 168.575 247.643 169.719 246.855 171.086C246.067 172.453 245.639 173.997 245.611 175.575C245.582 177.152 245.955 178.711 246.693 180.105C247.431 181.499 248.51 182.683 249.83 183.547C250.774 181.762 252.914 179.668 257.658 178.299Z" fill="#42C657"/>
<path d="M262.91 213.159H231.549L233.167 218.98H260.968L262.91 213.159Z" fill="#FFDA59"/>
<path d="M258.99 218.98H235.715L238.952 232.143H256.729L258.99 218.98Z" fill="#FFC83C"/>
<path d="M255.781 167.577L256.585 167.827C256.585 167.827 257.852 164.387 257.935 163.92C258.019 163.453 255.781 167.577 255.781 167.577Z" fill="#42C657"/>
<path d="M263.382 167.837L259.392 169.048C259.392 169.048 259.419 169.404 259.942 169.404C260.464 169.404 263.382 167.837 263.382 167.837Z" fill="#42C657"/>
<path d="M262.004 176.201H260.987C261.115 177.098 261.464 177.948 262.004 178.675C262.832 179.636 262.004 176.201 262.004 176.201Z" fill="#42C657"/>
<path d="M237.531 157.105C237.12 157.41 238.988 161.978 238.988 161.978H239.912C239.912 161.978 237.934 156.804 237.531 157.105Z" fill="#42C657"/>
<path d="M241.868 160.849C242.035 159.61 241.073 157.521 241.073 157.521V160.641C241.073 160.641 241.693 162.084 241.868 160.849Z" fill="#42C657"/>
<path d="M234.499 178.844C235.077 178.382 235.101 174.221 235.101 174.221L234.176 174.554C234.176 174.554 233.922 179.316 234.499 178.844Z" fill="#42C657"/>
<rect x="247.649" y="131.055" width="88.6496" height="62.0548" rx="10" transform="rotate(180 247.649 131.055)" fill="#A9DBFF"/>
<path d="M210.923 127.255H233.668V150L210.923 127.255Z" fill="#A9DBFF"/>
<rect width="118" height="62" rx="10" transform="matrix(1 8.74228e-08 8.74228e-08 -1 488 145)" fill="#A9DBFF"/>
<path d="M524.726 141.255H501.982V164L524.726 141.255Z" fill="#A9DBFF"/>
<rect width="103" height="62" rx="10" transform="matrix(1 8.74228e-08 8.74228e-08 -1 335 90)" fill="#A9DBFF"/>
<path d="M371.726 86.2554H348.982V109L371.726 86.2554Z" fill="#A9DBFF"/>
<g clip-path="url(#clip0)">
<path d="M397.326 45.5843C396.688 45.0544 395.747 45.2197 395.269 45.8967L386.905 57.7371C386.318 58.5691 386.713 59.7324 387.685 60.0349L401.534 64.3408C402.326 64.587 403.174 64.1446 403.356 63.3355C404.862 56.6608 402.589 49.9599 397.326 45.5843Z" fill="#FD6559"/>
<path d="M379.972 40.1977C379.169 40.4042 378.75 41.2629 379.016 42.0476L383.396 54.9437C383.791 56.1043 385.335 56.3278 386.042 55.3267L393.897 44.2059C394.375 43.5289 394.216 42.5865 393.505 42.1606C389.337 39.6644 384.676 38.9871 379.972 40.1977Z" fill="#33A9FF"/>
<path d="M377.173 45.2511L382.255 60.2137C382.512 60.9708 383.116 61.5592 383.879 61.7968L398.966 66.4925C399.251 66.5813 399.335 66.8463 399.264 67.0224C395.979 75.1738 386.933 79.57 378.39 76.9166C369.391 74.1216 364.358 64.5524 367.153 55.5539C368.693 50.5957 371.979 46.9403 376.628 44.9641C376.809 44.8873 377.077 44.9691 377.173 45.2511Z" fill="#10B12A" stroke="#10B12A" stroke-width="2" stroke-linejoin="round"/>
</g>
<g clip-path="url(#clip1)">
<path d="M207.19 100.892L207.884 99.1859C208.24 99.0921 208.563 99.1597 208.919 99.0659L210.168 100.338L211.128 101.38L216.199 98.0651L215.629 96.7673L214.966 95.1131C215.194 94.8243 215.262 94.5017 215.491 94.2129L217.333 94.2618L218.69 94.2094L219.906 88.4032L218.683 87.8104L216.977 87.1164C216.883 86.76 216.951 86.4375 216.857 86.0811L218.129 84.8322L219.01 83.8383L215.822 78.9619L214.524 79.5319L212.87 80.1957C212.615 79.8056 212.293 79.738 212.004 79.5092L212.053 77.6675L212 76.3097L206.194 75.0939L205.601 76.3166L204.907 78.0232C204.551 78.1169 204.228 78.0494 203.872 78.1431L202.623 76.8715L201.663 75.8287L196.592 79.144L197.162 80.4418L197.825 82.096C197.596 82.3848 197.529 82.7074 197.3 82.9962L195.458 82.9472L194.101 82.9996L192.885 88.8059L194.108 89.3986L195.814 90.0927C195.908 90.449 195.84 90.7716 195.934 91.1279L194.662 92.3769L193.62 93.337L196.935 98.4085L198.233 97.8384L199.887 97.1747C200.176 97.4035 200.465 97.6323 200.787 97.6999L200.738 99.5416L200.791 100.899L206.597 102.115L207.19 100.892V100.892ZM202.419 99.5567L202.509 96.7136C201.736 96.3834 200.997 95.892 200.292 95.2393L197.73 96.218L195.945 93.4872L197.869 91.5332C197.554 90.6255 197.401 89.7515 197.408 88.9113L194.768 87.8533L195.443 84.6276L198.286 84.7179C198.617 83.9453 199.108 83.2064 199.761 82.5013L198.782 79.9393L201.513 78.1542L203.467 80.0785C204.375 79.7636 205.249 79.6098 206.089 79.6174L207.147 76.9769L210.372 77.6524L210.282 80.4955C211.055 80.8256 211.794 81.3171 212.499 81.9698L215.094 80.8298L216.88 83.5606L214.955 85.5146C215.27 86.4223 215.424 87.2963 215.416 88.1365L218.023 89.3557L217.348 92.5814L214.505 92.4912C214.174 93.2638 213.683 94.0027 213.03 94.7078L214.009 97.2697L211.278 99.0549L209.324 97.1305C208.416 97.4455 207.542 97.5992 206.702 97.5916L205.644 100.232L202.419 99.5567Z" fill="#FD6559"/>
<path d="M212.041 89.7866C212.682 86.7222 210.642 83.6012 207.578 82.9596C204.513 82.3179 201.392 84.3581 200.751 87.4225C200.109 90.4869 202.149 93.6078 205.214 94.2495C208.278 94.8912 211.399 92.851 212.041 89.7866ZM202.364 87.7602C202.836 85.5022 204.982 84.0996 207.24 84.5724C209.498 85.0452 210.901 87.1909 210.428 89.4488C209.955 91.7068 207.809 93.1094 205.551 92.6366C203.293 92.1638 201.891 90.0182 202.364 87.7602Z" fill="#FD6559"/>
</g>
<g clip-path="url(#clip2)">
<path d="M209.53 121.32L210.052 120.036C210.32 119.965 210.563 120.016 210.831 119.946L211.771 120.903L212.494 121.688L216.311 119.192L215.882 118.215L215.383 116.97C215.555 116.753 215.606 116.51 215.778 116.293L217.164 116.33L218.186 116.29L219.101 111.92L218.181 111.474L216.896 110.951C216.826 110.683 216.877 110.44 216.806 110.172L217.763 109.232L218.427 108.484L216.027 104.814L215.05 105.243L213.805 105.742C213.613 105.449 213.371 105.398 213.153 105.225L213.19 103.839L213.151 102.817L208.78 101.902L208.334 102.822L207.812 104.107C207.544 104.178 207.301 104.127 207.033 104.197L206.093 103.24L205.37 102.455L201.553 104.951L201.982 105.927L202.481 107.173C202.309 107.39 202.258 107.633 202.086 107.85L200.7 107.813L199.678 107.853L198.763 112.223L199.683 112.669L200.968 113.192C201.038 113.46 200.987 113.703 201.058 113.971L200.101 114.911L199.316 115.633L201.811 119.451L202.788 119.022L204.033 118.522C204.25 118.694 204.468 118.867 204.711 118.917L204.674 120.304L204.713 121.326L209.083 122.241L209.53 121.32V121.32ZM205.939 120.315L206.007 118.175C205.425 117.926 204.869 117.557 204.338 117.065L202.41 117.802L201.066 115.747L202.515 114.276C202.277 113.593 202.162 112.935 202.167 112.302L200.18 111.506L200.688 109.078L202.828 109.146C203.077 108.564 203.447 108.008 203.938 107.478L203.201 105.549L205.257 104.206L206.728 105.654C207.411 105.417 208.069 105.301 208.701 105.307L209.497 103.319L211.925 103.828L211.857 105.968C212.439 106.216 212.995 106.586 213.526 107.078L215.48 106.219L216.823 108.275L215.375 109.746C215.612 110.429 215.728 111.087 215.722 111.719L217.684 112.637L217.175 115.065L215.035 114.997C214.787 115.578 214.417 116.135 213.926 116.665L214.663 118.594L212.607 119.937L211.136 118.489C210.453 118.726 209.795 118.842 209.163 118.836L208.367 120.823L205.939 120.315Z" fill="#FD6559"/>
<path d="M213.181 112.961C213.664 110.655 212.128 108.305 209.821 107.822C207.515 107.339 205.166 108.875 204.683 111.182C204.2 113.488 205.736 115.837 208.042 116.32C210.349 116.803 212.698 115.268 213.181 112.961ZM205.897 111.436C206.253 109.736 207.868 108.681 209.567 109.036C211.267 109.392 212.323 111.007 211.967 112.707C211.611 114.406 209.996 115.462 208.296 115.106C206.597 114.75 205.541 113.135 205.897 111.436Z" fill="#FD6559"/>
</g>
<g clip-path="url(#clip3)">
<path d="M190.343 115.506L190.866 114.222C191.134 114.151 191.377 114.202 191.645 114.131L192.585 115.089L193.307 115.873L197.125 113.378L196.696 112.401L196.196 111.156C196.368 110.939 196.419 110.696 196.591 110.479L197.978 110.515L199 110.476L199.915 106.106L198.994 105.66L197.71 105.137C197.639 104.869 197.69 104.626 197.62 104.358L198.577 103.418L199.24 102.67L196.841 98.9993L195.864 99.4284L194.619 99.928C194.427 99.6344 194.184 99.5835 193.967 99.4113L194.004 98.0251L193.964 97.0031L189.594 96.088L189.148 97.0083L188.625 98.2928C188.357 98.3634 188.114 98.3125 187.846 98.3831L186.906 97.4259L186.183 96.641L182.366 99.1364L182.795 100.113L183.295 101.358C183.123 101.576 183.072 101.819 182.899 102.036L181.513 101.999L180.491 102.039L179.576 106.409L180.496 106.855L181.781 107.377C181.852 107.646 181.801 107.888 181.871 108.157L180.914 109.097L180.129 109.819L182.625 113.637L183.601 113.207L184.847 112.708C185.064 112.88 185.281 113.052 185.524 113.103L185.487 114.489L185.527 115.511L189.897 116.427L190.343 115.506V115.506ZM186.752 114.501L186.82 112.361C186.238 112.112 185.682 111.742 185.152 111.251L183.223 111.988L181.88 109.932L183.328 108.462C183.091 107.778 182.975 107.121 182.981 106.488L180.993 105.692L181.502 103.264L183.642 103.332C183.89 102.75 184.26 102.194 184.752 101.663L184.015 99.7351L186.07 98.3914L187.541 99.8398C188.224 99.6027 188.882 99.4871 189.515 99.4928L190.311 97.5053L192.739 98.0137L192.671 100.154C193.252 100.402 193.809 100.772 194.339 101.263L196.293 100.405L197.637 102.461L196.188 103.931C196.425 104.615 196.541 105.273 196.535 105.905L198.497 106.823L197.989 109.251L195.849 109.183C195.6 109.764 195.231 110.32 194.739 110.851L195.476 112.779L193.421 114.123L191.95 112.675C191.267 112.912 190.609 113.027 189.976 113.022L189.18 115.009L186.752 114.501Z" fill="#FD6559"/>
<path d="M193.994 107.147C194.477 104.84 192.941 102.491 190.635 102.008C188.328 101.525 185.979 103.061 185.496 105.367C185.013 107.674 186.549 110.023 188.856 110.506C191.162 110.989 193.511 109.453 193.994 107.147ZM186.71 105.622C187.066 103.922 188.681 102.866 190.381 103.222C192.08 103.578 193.136 105.193 192.78 106.893C192.424 108.592 190.809 109.648 189.11 109.292C187.41 108.936 186.354 107.321 186.71 105.622Z" fill="#FD6559"/>
</g>
<path d="M568 99C568 96.2386 570.239 94 573 94V94C575.761 94 578 96.2386 578 99V135H568V99Z" fill="#603AD1"/>
<path d="M555 106.5C555 104.015 557.015 102 559.5 102V102C561.985 102 564 104.015 564 106.5V135H555V106.5Z" fill="#198BDD"/>
<path d="M540 114.5C540 112.015 542.015 110 544.5 110V110C546.985 110 549 112.015 549 114.5V135H540V114.5Z" fill="#10B12A"/>
<path d="M524 120C524 117.239 526.239 115 529 115V115C531.761 115 534 117.239 534 120V135H524V120Z" fill="#FFC83C"/>
<path d="M511 125.5C511 123.015 513.015 121 515.5 121V121C517.985 121 520 123.015 520 125.5V135H511V125.5Z" fill="#FD6559"/>
<path fill-rule="evenodd" clip-rule="evenodd" d="M523.601 109.675L507.754 133.603C507.466 134.037 506.916 134.13 506.526 133.809C506.45 133.746 506.383 133.67 506.329 133.584C505.905 132.911 505.89 132.02 506.29 131.329L522.812 102.82C524.132 100.541 526.862 99.8855 528.908 101.356C528.978 101.406 529.046 101.458 529.113 101.513L545.011 114.406C546.63 115.719 548.841 115.652 550.393 114.243L573.226 93.5201L571.33 90.5951C570.855 89.862 571.003 88.8388 571.661 88.3097C571.912 88.1083 572.213 88 572.522 88H584.53C585.342 88 586 88.7329 586 89.637C586 89.8111 585.975 89.9841 585.926 90.1495L582.102 103.069C581.848 103.928 581.017 104.394 580.246 104.111C580 104.021 579.781 103.86 579.609 103.645L576.955 100.328L550.359 123.684C548.676 125.162 546.283 125.079 544.686 123.487L530.092 108.931C528.278 107.122 525.49 107.293 523.865 109.313C523.772 109.429 523.684 109.55 523.601 109.675Z" fill="#FFDE8B"/>
<g clip-path="url(#clip4)">
<path d="M186.474 339.87C186.474 339.87 186.467 339.83 186.463 339.81C186.074 338.764 185.703 337.702 185.361 336.628C183.697 339.045 182.017 339.851 180.782 340.039C180.648 340.067 180.513 340.087 180.377 340.101C177.845 340.261 175.333 338.317 173.655 334.949C173.622 334.882 173.605 334.809 173.604 334.736C173.604 334.663 173.62 334.59 173.652 334.523C173.719 334.383 173.838 334.27 173.988 334.204C175.673 333.487 177.51 333.126 179.366 333.146C181.222 333.167 183.052 333.569 184.721 334.323C184.448 333.308 184.21 332.28 184.008 331.247C183.617 331.373 183.215 331.469 182.806 331.533C178.688 332.162 175.525 329.164 175.373 329.022C175.316 328.964 175.274 328.893 175.252 328.816C175.231 328.739 175.229 328.659 175.249 328.582C175.257 328.495 175.284 328.412 175.329 328.336C175.374 328.261 175.436 328.195 175.511 328.143C177.921 326.855 179.995 326.463 181.668 326.97C182.738 327.314 183.637 328.006 184.196 328.918C184.883 326.557 186.183 324.387 187.983 322.597C189.783 320.807 192.028 319.45 194.525 318.643C194.596 318.616 194.673 318.604 194.75 318.609C194.827 318.614 194.902 318.635 194.968 318.671C195.031 318.709 195.084 318.76 195.123 318.819C195.162 318.879 195.186 318.945 195.193 319.015C195.558 322.508 195.629 326.836 192.916 329.317C191.826 330.285 190.431 330.909 188.933 331.099C187.652 331.268 186.352 331.275 185.069 331.119C185.578 333.571 186.264 335.989 187.121 338.357C188.509 336.306 192.142 331.646 197.838 329.362C197.9 329.331 197.968 329.314 198.038 329.311C198.108 329.308 198.178 329.32 198.243 329.345C198.308 329.369 198.366 329.407 198.413 329.455C198.46 329.503 198.495 329.56 198.516 329.622C199.495 332.528 199.165 335.056 197.569 336.941C196.258 338.514 194.139 339.524 191.43 339.937C190.23 340.11 189.014 340.176 187.799 340.135C188.566 342.077 189.427 344.005 190.316 345.84C191.938 344.178 196.718 339.871 202.14 340.54C202.211 340.55 202.279 340.574 202.338 340.611C202.398 340.648 202.447 340.698 202.483 340.756C202.52 340.819 202.542 340.888 202.547 340.96C202.553 341.031 202.541 341.103 202.513 341.17C201.202 344.755 199.625 346.869 197.565 347.829C197.028 348.079 196.454 348.252 195.861 348.343C194.318 348.518 192.751 348.327 191.307 347.789C192.579 350.183 193.9 352.398 195.154 354.362C196.399 352.865 198.03 351.68 199.899 350.915C201.767 350.15 203.814 349.83 205.853 349.983C205.917 349.986 205.979 350.001 206.037 350.027C206.095 350.053 206.146 350.09 206.188 350.135C206.231 350.179 206.262 350.232 206.282 350.288C206.302 350.345 206.309 350.404 206.303 350.463C206.197 351.593 205.807 352.683 205.164 353.647C204.522 354.612 203.645 355.424 202.602 356.019C201.841 356.457 200.994 356.752 200.109 356.887C198.938 357.057 197.739 356.95 196.623 356.575C198.248 359.001 200.008 361.347 201.896 363.603C201.949 363.683 201.98 363.773 201.987 363.866C201.994 363.959 201.976 364.053 201.936 364.138C201.895 364.223 201.832 364.298 201.753 364.356C201.674 364.414 201.581 364.453 201.481 364.47C201.398 364.485 201.311 364.479 201.231 364.453C201.15 364.426 201.079 364.381 201.024 364.32C198.727 361.556 196.606 358.67 194.672 355.679C194.63 355.635 194.598 355.584 194.578 355.528C194.2 354.945 193.816 354.338 193.425 353.706C192.021 355.836 190.089 357.181 187.966 357.506C187.734 357.541 187.511 357.575 187.273 357.577C186.076 357.649 184.884 357.375 183.861 356.793C182.838 356.212 182.035 355.351 181.564 354.33C181.521 354.214 181.52 354.089 181.561 353.972C181.601 353.856 181.681 353.755 181.788 353.684C183.23 352.613 184.927 351.874 186.74 351.529C188.553 351.184 190.43 351.243 192.215 351.701C191.367 350.252 190.518 348.72 189.699 347.108C189.641 347.047 189.601 346.972 189.586 346.892C189.363 346.439 189.132 345.986 188.915 345.525C187.207 347.942 185.464 349.258 183.607 349.542C181.353 349.886 178.994 348.66 176.426 345.832C176.348 345.725 176.314 345.595 176.33 345.467C176.346 345.339 176.412 345.22 176.515 345.132C180.228 341.819 185.57 342.871 188.01 343.597C187.465 342.394 186.956 341.163 186.48 339.904C186.48 339.904 186.477 339.884 186.474 339.87Z" fill="#42C657"/>
<path d="M221.523 346.975C220.339 347.309 219.11 347.487 217.872 347.501C215.333 347.513 212.871 346.697 210.922 345.195C209.431 344.114 208.279 342.685 207.585 341.057C206.891 339.428 206.681 337.659 206.975 335.93C207.012 335.774 207.112 335.636 207.254 335.544C207.396 335.452 207.57 335.413 207.742 335.435C210.772 335.741 213.691 336.666 216.285 338.142C218.879 339.619 221.084 341.61 222.74 343.971C224.121 340.492 225.415 336.749 226.5 332.896C224.73 333.867 222.725 334.413 220.668 334.484C219.822 334.486 218.982 334.363 218.179 334.12C213.915 332.815 210.987 328.122 208.455 323.237C208.409 323.148 208.386 323.051 208.386 322.953C208.386 322.855 208.409 322.759 208.455 322.67C208.492 322.582 208.551 322.503 208.628 322.44C208.704 322.377 208.795 322.331 208.894 322.306C217.214 320.111 224.801 327.636 227.191 330.377C228.029 327.115 228.673 323.813 229.12 320.486C227.353 320.8 225.559 320.966 223.759 320.981C219.374 320.981 215.91 319.899 213.564 317.795C210.779 315.287 209.825 311.555 210.79 306.973C210.809 306.884 210.847 306.801 210.904 306.727C210.96 306.654 211.032 306.592 211.116 306.546C211.2 306.5 211.293 306.471 211.39 306.461C211.487 306.451 211.585 306.46 211.678 306.487C220.58 308.672 226.862 314.781 229.427 317.674C229.482 317.077 229.537 316.48 229.581 315.883C229.596 315.737 229.661 315.599 229.767 315.489C229.989 314.367 230.481 313.305 231.205 312.381C231.93 311.457 232.869 310.694 233.955 310.149C236.389 309.036 239.601 309.198 243.482 310.624C243.597 310.667 243.7 310.733 243.786 310.817C243.871 310.901 243.935 311.001 243.975 311.109C244.014 311.212 244.026 311.322 244.008 311.429C243.991 311.537 243.946 311.639 243.876 311.726C243.679 311.969 239.491 317.047 233.22 317.047C232.523 317.031 231.829 316.953 231.148 316.814C231.017 318.473 230.83 320.121 230.589 321.76C232.959 320.271 235.653 319.279 238.483 318.854C241.313 318.43 244.209 318.582 246.968 319.302C247.186 319.36 247.371 319.494 247.483 319.676C247.546 319.761 247.588 319.858 247.607 319.959C247.626 320.06 247.621 320.164 247.593 320.263C245.619 325.684 242.111 329.113 238.307 329.417H237.781C235.808 329.417 233.078 328.577 230.107 325.229C229.365 329.014 228.399 332.759 227.213 336.446C230.743 334.848 238.724 332.097 244.973 336.294C245.063 336.344 245.142 336.41 245.204 336.489C245.265 336.567 245.309 336.657 245.331 336.752C245.354 336.847 245.355 336.945 245.335 337.04C245.315 337.135 245.273 337.226 245.214 337.306C241.848 342.09 238.537 344.386 235.095 344.386H235.007C232.146 344.386 229.263 342.737 226.237 339.46C224.998 343.051 223.639 346.479 222.246 349.645C225.667 347.572 229.756 347.875 234.755 350.606C234.864 350.667 234.957 350.749 235.027 350.847C235.097 350.945 235.143 351.056 235.161 351.173C235.173 351.284 235.155 351.397 235.11 351.501C235.064 351.605 234.991 351.697 234.898 351.769C234.645 351.941 230.381 354.905 225.612 354.905C223.781 354.921 221.986 354.431 220.459 353.499C217.761 359.285 214.652 364.901 211.152 370.309C211.082 370.411 210.985 370.494 210.869 370.551C210.754 370.607 210.625 370.636 210.494 370.633C210.318 370.634 210.145 370.585 210.001 370.491C209.809 370.384 209.67 370.211 209.615 370.011C209.56 369.81 209.592 369.598 209.705 369.419C214.312 362.253 218.265 354.746 221.523 346.975V346.975Z" fill="#9AE064"/>
<path d="M191.321 387.564H217.445L219.408 362.652H189.347L191.321 387.564Z" fill="#FFDA59"/>
<path d="M187.406 360.973H221.358V365.191H187.406V360.973Z" fill="#FFC83C"/>
</g>
<g clip-path="url(#clip5)">
<path d="M552.843 324.358H507.337V327.897H552.843V324.358Z" fill="#B7E1FF"/>
<path d="M552.836 324.358H540.344V327.897H552.836V324.358Z" fill="#9DD6FF"/>
<path d="M501.556 327.904V343.853H499.069V345.588H501.556V356.262H548.151V346.584H544.705V344.434H548.151V341.254H549.687V339.816H547.861V327.904H501.556Z" fill="#CEEBFF"/>
<path d="M535.782 327.946V356.082H548.151V346.369H544.699V344.434H548.151V341.26H549.687V339.636H547.861V327.904L535.782 327.946Z" fill="#9DD6FF"/>
<path d="M536.657 345.353C536.657 345.457 528.23 345.533 517.832 345.533C507.434 345.533 499 345.457 499 345.353C499 345.249 507.427 345.18 517.832 345.18C528.237 345.18 536.657 345.256 536.657 345.353Z" fill="#A3D8FF"/>
<path d="M536.657 343.735C536.657 343.832 528.23 343.915 517.832 343.915C507.434 343.915 499 343.832 499 343.735C499 343.639 507.427 343.556 517.832 343.556C528.237 343.556 536.657 343.639 536.657 343.735Z" fill="#A3D8FF"/>
<path d="M539.076 339.373C539.076 339.47 530.648 339.553 520.25 339.553C509.853 339.553 501.418 339.47 501.418 339.373C501.418 339.276 509.846 339.2 520.25 339.2C530.655 339.2 539.076 339.276 539.076 339.373Z" fill="#A3D8FF"/>
<path d="M539.31 351.257C539.31 351.354 530.883 351.437 520.485 351.437C510.087 351.437 501.653 351.354 501.653 351.257C501.653 351.16 510.08 351.084 520.485 351.084C530.89 351.084 539.31 351.16 539.31 351.257Z" fill="#A3D8FF"/>
<path d="M506.842 359.642V375.591H504.354V377.326H506.842V388H553.436V378.266H549.991V376.192H553.436V373.019H554.972V371.574H553.153V359.642H506.842Z" fill="#CEEBFF"/>
<path d="M541.067 359.69V387.82H553.436V378.107H549.984V376.171L553.436 376.234V373.06H555L554.973 371.422L553.147 371.374V359.642L541.067 359.69Z" fill="#9DD6FF"/>
<path d="M541.949 377.098C541.949 377.195 533.515 377.271 523.117 377.271C512.719 377.271 504.285 377.195 504.285 377.098C504.285 377.001 512.712 376.918 523.117 376.918C533.522 376.918 541.949 377.001 541.949 377.098Z" fill="#A3D8FF"/>
<path d="M541.949 375.501C541.949 375.598 533.515 375.681 523.117 375.681C512.719 375.681 504.285 375.57 504.285 375.501C504.285 375.432 512.712 375.328 523.117 375.328C533.522 375.328 541.949 375.377 541.949 375.501Z" fill="#A3D8FF"/>
<path d="M544.368 371.111C544.368 371.215 535.934 371.291 525.536 371.291C515.138 371.291 506.704 371.215 506.704 371.111C506.704 371.008 515.131 370.938 525.536 370.938C535.94 370.938 544.368 371.015 544.368 371.111Z" fill="#9DD6FF"/>
<path d="M544.595 382.995C544.595 383.099 536.168 383.175 525.77 383.175C515.372 383.175 506.938 383.099 506.938 382.995C506.938 382.891 515.365 382.822 525.77 382.822C536.175 382.822 544.595 382.898 544.595 382.995Z" fill="#A3D8FF"/>
<path d="M506.166 296V311.956H503.672V313.684H506.166V324.344H552.747V314.665H549.302V312.529H552.747V309.356H554.283V307.911H552.471V296H506.166Z" fill="#CEEBFF"/>
<path d="M540.385 296.048V324.185H552.76V314.465H549.308V312.529L552.76 312.592V309.418L554.324 309.425L554.297 307.78L552.471 307.732V296L540.385 296.048Z" fill="#9DD6FF"/>
<path d="M541.267 313.456C541.267 313.552 532.84 313.628 522.442 313.628C512.044 313.628 503.61 313.552 503.61 313.456C503.61 313.359 512.037 313.283 522.428 313.283C532.819 313.283 541.267 313.359 541.267 313.456Z" fill="#A3D8FF"/>
<path d="M541.267 311.831C541.267 311.935 532.84 312.011 522.442 312.011C512.044 312.011 503.61 311.935 503.61 311.831C503.61 311.727 512.037 311.658 522.442 311.658C532.847 311.658 541.267 311.734 541.267 311.831Z" fill="#A3D8FF"/>
<path d="M543.686 307.476C543.686 307.572 535.258 307.648 524.86 307.648C514.462 307.648 506.028 307.572 506.028 307.476C506.028 307.379 514.456 307.296 524.86 307.296C535.265 307.296 543.686 307.372 543.686 307.476Z" fill="#A3D8FF"/>
<path d="M543.92 319.359C543.92 319.456 535.493 319.532 525.095 319.532C514.697 319.532 506.263 319.456 506.263 319.359C506.263 319.263 514.69 319.18 525.095 319.18C535.5 319.18 543.92 319.256 543.92 319.359Z" fill="#A3D8FF"/>
<path d="M549.791 356.103H504.285V359.643H549.791V356.103Z" fill="#B7E1FF"/>
<path d="M549.791 356.103H537.298V359.643H549.791V356.103Z" fill="#9DD6FF"/>
</g>
<defs>
<clipPath id="clip0">
<rect width="38.7416" height="38.7416" fill="white" transform="translate(358 51.0356) rotate(-27.7451)"/>
</clipPath>
<clipPath id="clip1">
<rect width="26.3652" height="26.3652" fill="white" transform="translate(222 78.4036) rotate(101.827)"/>
</clipPath>
<clipPath id="clip2">
<rect width="19.8447" height="19.8447" fill="white" transform="translate(220.677 104.393) rotate(101.827)"/>
</clipPath>
<clipPath id="clip3">
<rect width="19.8447" height="19.8447" fill="white" transform="translate(201.491 98.5791) rotate(101.827)"/>
</clipPath>
<clipPath id="clip4">
<rect width="83.5923" height="90.5642" fill="white" transform="matrix(-1 0 0 1 247.592 297)"/>
</clipPath>
<clipPath id="clip5">
<rect width="56" height="92" fill="white" transform="translate(499 296)"/>
</clipPath>
</defs>
</svg>
